<?xml version="1.0" encoding="iso-8859-1"?>
<!-- Generator: Adobe Illustrator 18.0.0, SVG Export Plug-In . SVG Version: 6.00 Build 0)  -->
<!DOCTYPE svg PUBLIC "-//W3C//DTD SVG 1.1//EN" "http://www.w3.org/Graphics/SVG/1.1/DTD/svg11.dtd">
<svg version="1.1" id="Capa_1" xmlns="http://www.w3.org/2000/svg" xmlns:xlink="http://www.w3.org/1999/xlink" x="0px" y="0px"
	 viewBox="0 0 58.371 58.371" style="enable-background:new 0 0 58.371 58.371;" xml:space="preserve">
<g>
	<path d="M55.833,56.679l-5.969-6.243c1.745-1.918,2.82-4.458,2.82-7.25c0-5.953-4.843-10.796-10.796-10.796
		s-10.796,4.843-10.796,10.796s4.843,10.796,10.796,10.796c2.442,0,4.689-0.824,6.5-2.196l6,6.276
		c0.196,0.205,0.459,0.309,0.723,0.309c0.249,0,0.497-0.092,0.691-0.277C56.2,57.711,56.215,57.079,55.833,56.679z M33.092,43.186
		c0-4.85,3.946-8.796,8.796-8.796s8.796,3.946,8.796,8.796s-3.946,8.796-8.796,8.796S33.092,48.036,33.092,43.186z"/>
	<path d="M28.096,43.1c0.025-4.029,1.793-7.644,4.578-10.153c-0.911,0.054-1.844,0.097-2.807,0.123
		c-0.87,0.027-1.74,0.041-2.606,0.041c-0.869,0-1.742-0.014-2.614-0.042c-7.341-0.201-13.191-1.238-17.403-2.717
		C5.264,29.685,3.569,28.899,2.261,28v7.111v0.5v0.5V37.4c2.846,2.971,12.394,5.711,25,5.711
		C27.544,43.111,27.816,43.103,28.096,43.1z"/>
	<path d="M24.896,29.965c0.326,0.009,0.651,0.018,0.982,0.023C26.334,29.996,26.795,30,27.261,30s0.926-0.004,1.383-0.011
		c0.33-0.005,0.656-0.015,0.982-0.023c0.116-0.003,0.234-0.005,0.349-0.008c11.253-0.359,19.648-2.915,22.286-5.668V23v-0.5V22
		v-7.111C47.393,18.232,37.105,20,27.261,20s-20.133-1.768-25-5.111V22v0.5V23v1.289c2.638,2.754,11.033,5.31,22.286,5.668
		C24.662,29.96,24.78,29.962,24.896,29.965z"/>
	<path d="M52.261,11.306V9.5V9c0-0.168-0.056-0.319-0.135-0.458C51.003,4.241,42.376,0,27.261,0C12.183,0,3.564,4.22,2.407,8.51
		C2.322,8.657,2.261,8.818,2.261,9v0.5v1.806C5.097,14.267,14.577,17,27.261,17S49.424,14.267,52.261,11.306z"/>
	<path d="M28.43,46.187c-0.39,0.005-0.772,0.014-1.17,0.014c-12.346,0-20.866-2.29-25-5.201v8.201c0,0.162,0.043,0.315,0.117,0.451
		c1.181,4.895,11.747,8.549,24.883,8.549c4.764,0,9.182-0.486,12.945-1.332C34.389,56.157,29.686,51.819,28.43,46.187z"/>
</g>
<g>
</g>
<g>
</g>
<g>
</g>
<g>
</g>
<g>
</g>
<g>
</g>
<g>
</g>
<g>
</g>
<g>
</g>
<g>
</g>
<g>
</g>
<g>
</g>
<g>
</g>
<g>
</g>
<g>
</g>
</svg>
