<?xml version="1.0" encoding="iso-8859-1"?>
<!-- Generator: Adobe Illustrator 18.0.0, SVG Export Plug-In . SVG Version: 6.00 Build 0)  -->
<!DOCTYPE svg PUBLIC "-//W3C//DTD SVG 1.1//EN" "http://www.w3.org/Graphics/SVG/1.1/DTD/svg11.dtd">
<svg version="1.1" id="Capa_1" xmlns="http://www.w3.org/2000/svg" xmlns:xlink="http://www.w3.org/1999/xlink" x="0px" y="0px"
	 viewBox="0 0 58.068 58.068" style="enable-background:new 0 0 58.068 58.068;" xml:space="preserve">
<path d="M28.9,57.201c-0.256,0-0.512-0.098-0.707-0.293c-0.391-0.391-0.391-1.023,0-1.414l0.707-0.707
	c0.391-0.391,1.023-0.391,1.414,0s0.391,1.023,0,1.414l-0.707,0.707C29.412,57.103,29.156,57.201,28.9,57.201z"/>
<g>
	<path d="M53.296,34.655l-2.85-2.85c-1.128-1.129-3.094-1.129-4.222,0L30.834,47.196l-2.652,9.723l9.723-2.651l15.391-15.391
		C54.459,37.712,54.459,35.819,53.296,34.655z M33.143,47.715l10.243-10.243l4.243,4.243L37.385,51.958L33.143,47.715z
		 M32.24,49.641l3.22,3.22l-4.428,1.208L32.24,49.641z M51.882,37.462l-2.839,2.839L44.8,36.058l2.839-2.839
		c0.372-0.373,1.021-0.373,1.394,0l2.849,2.85C52.265,36.453,52.265,37.079,51.882,37.462z"/>
	<path d="M30.7,43.087l10.943-10.943c-2.972,0.493-6.352,0.822-10.137,0.926c-0.87,0.027-1.74,0.041-2.606,0.041
		c-0.869,0-1.742-0.014-2.614-0.042c-7.341-0.201-13.191-1.238-17.403-2.717C6.904,29.685,5.209,28.899,3.9,28v7.111v0.5v0.5V37.4
		c2.846,2.971,12.394,5.711,25,5.711C29.51,43.111,30.106,43.099,30.7,43.087z"/>
	<path d="M26.536,29.965c0.326,0.009,0.651,0.018,0.982,0.023C27.974,29.996,28.435,30,28.9,30s0.926-0.004,1.383-0.011
		c0.33-0.005,0.656-0.015,0.982-0.023c0.116-0.003,0.234-0.005,0.349-0.008c11.253-0.359,19.648-2.915,22.286-5.668V23v-0.5V22
		v-7.111C49.033,18.232,38.744,20,28.9,20s-20.133-1.768-25-5.111V22v0.5V23v1.289c2.638,2.754,11.033,5.31,22.286,5.668
		C26.302,29.96,26.42,29.962,26.536,29.965z"/>
	<path d="M53.9,11.306V9.5V9c0-0.168-0.056-0.319-0.135-0.458C52.643,4.241,44.015,0,28.9,0C13.823,0,5.204,4.22,4.046,8.51
		C3.962,8.657,3.9,8.818,3.9,9v0.5v1.806C6.736,14.267,16.216,17,28.9,17S51.064,14.267,53.9,11.306z"/>
	<path d="M3.9,49.201c0,0.162,0.043,0.315,0.117,0.451c1.053,4.367,9.586,7.739,20.741,8.417l3.24-11.878
		C16.144,46.081,7.931,43.839,3.9,41V49.201z"/>
</g>
<g>
</g>
<g>
</g>
<g>
</g>
<g>
</g>
<g>
</g>
<g>
</g>
<g>
</g>
<g>
</g>
<g>
</g>
<g>
</g>
<g>
</g>
<g>
</g>
<g>
</g>
<g>
</g>
<g>
</g>
</svg>
