<?xml version="1.0" encoding="iso-8859-1"?>
<!-- Generator: Adobe Illustrator 18.1.1, SVG Export Plug-In . SVG Version: 6.00 Build 0)  -->
<svg version="1.1" id="Capa_1" xmlns="http://www.w3.org/2000/svg" xmlns:xlink="http://www.w3.org/1999/xlink" x="0px" y="0px"
	 viewBox="0 0 25.813 25.813" style="enable-background:new 0 0 25.813 25.813;" xml:space="preserve">
<g>
	<g>
		<path style="fill:#030104;" d="M10.813,14.626c1.415,0,2.762-0.124,4-0.344v-1.469c0-1.044,0.537-1.963,1.348-2.5
			c-1.578,0.4-3.4,0.633-5.348,0.633C4.84,10.946,0,8.793,0,6.133c0,1.11,0,1.852,0,3.68C0.001,12.472,4.84,14.626,10.813,14.626z"
			/>
		<ellipse style="fill:#030104;" cx="10.813" cy="4.813" rx="10.813" ry="4.813"/>
		<path style="fill:#030104;" d="M21.626,6.133c0,1.48-1.502,2.802-3.861,3.685c0.015,0,0.03-0.005,0.048-0.005h2
			c0.646,0,1.242,0.211,1.733,0.561c0.048-0.185,0.079-0.371,0.079-0.561C21.626,8.836,21.626,7.818,21.626,6.133z"/>
		<path style="fill:#030104;" d="M9.813,19.603v-1.79c0-0.713,0.26-1.359,0.677-1.875c-5.822-0.076-10.489-2.194-10.489-4.805
			c0,1.11,0,1.852,0,3.68C0.001,17.322,4.31,19.378,9.813,19.603z"/>
		<path style="fill:#030104;" d="M14.813,22.813h-2c-1.26,0-2.336-0.782-2.78-1.885c-5.607-0.177-10.032-2.253-10.032-4.795
			c0,1.11,0,1.852,0,3.68c0,2.659,4.84,4.813,10.813,4.813c1.415,0,2.762-0.124,4-0.344L14.813,22.813L14.813,22.813z"/>
	</g>
	<path style="fill:#030104;" d="M24.813,16.813h-4v-4c0-0.551-0.449-1-1-1h-2c-0.551,0-1,0.449-1,1v4h-4c-0.551,0-1,0.449-1,1v2
		c0,0.551,0.449,1,1,1h4v4c0,0.551,0.449,1,1,1h2c0.551,0,1-0.449,1-1v-4h4c0.551,0,1-0.449,1-1v-2
		C25.813,17.262,25.364,16.813,24.813,16.813z"/>
</g>
<g>
</g>
<g>
</g>
<g>
</g>
<g>
</g>
<g>
</g>
<g>
</g>
<g>
</g>
<g>
</g>
<g>
</g>
<g>
</g>
<g>
</g>
<g>
</g>
<g>
</g>
<g>
</g>
<g>
</g>
</svg>
